<?xml version="1.0" encoding="UTF-8"?>
<svg version="1.1" xmlns="http://www.w3.org/2000/svg" width="3000" height="3000">
<path d="M0 0 C0.91910156 0.42410156 1.83820313 0.84820313 2.78515625 1.28515625 C29.78165315 14.91629885 50.44406764 44.68447275 67.44287109 68.79443359 C68.94917434 70.92800894 70.46693536 73.05291474 71.98828125 75.17578125 C89.8255125 100.13963882 106.23957156 126.10095873 122.29882812 152.23339844 C124.11776312 155.19151717 125.94140668 158.14669922 127.765625 161.1015625 C137.94976958 177.60872592 148.02210493 194.18223394 158.07287598 210.77075195 C172.96637385 235.35087102 187.95110857 259.8726114 203.24560547 284.20605469 C204.35376657 285.97084674 205.45984102 287.73695234 206.56298828 289.50488281 C244.48879735 350.27979088 285.58667547 409.87983156 332.1237793 464.42260742 C334.91295496 467.69517927 337.62712416 471.01704384 340.3125 474.375 C345.18072793 480.36599041 350.47159208 485.93535885 355.765625 491.546875 C358.19648811 494.12775709 360.56551543 496.74663266 362.875 499.4375 C365.69317943 502.71593486 368.7030007 505.74772482 371.8125 508.75 C373.69700899 510.68835211 375.45864466 512.66836877 377.22265625 514.71484375 C381.10995187 519.18839285 385.23684461 523.38453042 389.4375 527.5625 C390.50581055 528.63661133 390.50581055 528.63661133 391.59570312 529.73242188 C395.66803248 533.79735372 399.83171126 537.68860699 404.20922852 541.42358398 C406.05295906 543.04661985 407.78055074 544.74653796 409.5 546.5 C413.16278917 550.21184439 417.04559025 553.60342235 421 557 C423.46021732 559.12282436 425.91792551 561.24853918 428.375 563.375 C429.36101196 564.22783569 429.36101196 564.22783569 430.36694336 565.09790039 C433.96600886 568.21673277 437.53551789 571.36198235 441.0625 574.5625 C447.26402917 580.17243592 453.61349218 585.60258871 460 591 C460.65919434 591.55880859 461.31838867 592.11761719 461.99755859 592.69335938 C485.73201894 612.7506498 511.37388593 629.75780925 539 644 C540.25683594 644.6489624 540.25683594 644.6489624 541.5390625 645.31103516 C589.74688751 669.89664811 644.89745224 683.03605946 699 684 C699.84481934 684.02046387 700.68963867 684.04092773 701.56005859 684.06201172 C733.48850716 684.76841916 765.41960781 681.56447744 796.75 675.5 C798.23959229 675.21612427 798.23959229 675.21612427 799.75927734 674.92651367 C811.68330368 672.48839042 822.54609318 668.35228632 830 658.25 C833.32803205 652.84194791 833.64828032 648.21422991 833 642 C832.09614522 638.99985551 830.74814954 636.59063125 829 634 C828.57203125 633.36578125 828.1440625 632.7315625 827.703125 632.078125 C814.15329977 614.61701002 788.21158407 606.44872889 768 600 C767.17161621 599.73010254 766.34323242 599.46020508 765.48974609 599.18212891 C745.04924842 592.59386932 723.96930197 588.33662467 703.02996826 583.67504883 C617.76738581 564.6793362 533.31113352 541.92121801 396 434 C395.2265625 433.05511719 394.453125 432.11023437 393.65625 431.13671875 C386.64750963 422.40906263 380.9258018 413.04491062 375.3515625 403.34960938 C374.52587187 401.91419633 373.69404188 400.48226474 372.8515625 399.05664062 C361.82139208 380.37584448 354.84180712 359.05999394 350 338 C349.82355957 337.24912109 349.64711914 336.49824219 349.46533203 335.72460938 C345.09808471 316.42042399 343.08620552 291.51076635 353.75 274 C358.92849422 267.10401523 364.61447476 262.26849337 373 260 C375.91116483 259.58871256 378.75033231 259.52100105 381.6875 259.5625 C382.47713135 259.57297363 383.2667627 259.58344727 384.08032227 259.59423828 C405.77103081 260.25947581 424.99467608 274.77888368 442 287 C442.73009277 287.52464844 443.46018555 288.04929687 444.21240234 288.58984375 C447.1316735 290.69292524 450.04661279 292.80189299 452.95825195 294.91552734 C522.90803903 345.63837759 597.99646843 379.65549621 682 399 C682.6627594 399.15299561 683.3255188 399.30599121 684.00836182 399.46362305 C704.74114705 404.21634083 725.71082839 407.38929218 746.7314415 410.55236816 C799.90927388 418.55628393 852.01500758 429.40706683 903.11755371 446.3762207 C904.91185115 446.97079044 906.70831575 447.55880822 908.50488281 448.14648438 C935.34457553 456.95338207 961.54758474 467.76107537 987 480 C988.66192383 480.79809082 988.66192383 480.79809082 990.35742188 481.61230469 C1046.6144916 508.79956119 1102.34203383 545.79001419 1143 594 C1143.77214844 594.88300781 1144.54429688 595.76601562 1145.33984375 596.67578125 C1156.18626441 609.15262967 1166.16314882 622.42521341 1175.18359375 636.27734375 C1181.19665329 645.29046741 1188.06363059 653.68997314 1195 662 C1195.82516113 662.99684814 1196.65032227 663.99369629 1197.50048828 665.02075195 C1205.02658392 674.01784663 1213.08412094 682.39391966 1221.40014648 690.66088867 C1223.57056561 692.82052554 1225.72999817 694.99073903 1227.88867188 697.16210938 C1235.28972473 704.57019675 1242.74503418 711.54450641 1251 718 C1252.06401459 718.89703365 1253.1225814 719.80063407 1254.171875 720.71484375 C1259.55932681 725.35948023 1265.10380925 729.68281927 1270.9375 733.75 C1271.56430664 734.2049585 1272.19111328 734.65991699 1272.83691406 735.12866211 C1276.39570481 737.5720892 1276.39570481 737.5720892 1280.55859375 737.51953125 C1289.94071589 731.68009843 1298.55689375 725.12072502 1307 718 C1307.99483398 717.17483887 1308.98966797 716.34967773 1310.01464844 715.49951172 C1319.01471598 707.97380748 1327.39245987 699.91734751 1335.66088867 691.59985352 C1337.82052554 689.42943439 1339.99073903 687.27000183 1342.16210938 685.11132812 C1349.57194194 677.70847903 1356.5290248 670.24453504 1363 662 C1363.92156543 660.92027013 1364.851132 659.84724992 1365.79296875 658.78515625 C1373.39416738 650.14235781 1379.87185849 640.82251891 1386.38671875 631.34619141 C1396.30302761 616.92492504 1406.91234506 603.20216067 1418.82421875 590.359375 C1420.66724857 588.3608292 1422.43460726 586.32684507 1424.1875 584.25 C1431.71207012 575.59674437 1440.04201003 567.2383062 1448.8125 559.84765625 C1450.64956634 558.29599129 1452.45269421 556.71818945 1454.25 555.12109375 C1462.50738424 547.81373252 1471.01315984 541.00984713 1479.92431641 534.51806641 C1482.0161903 532.98815911 1484.09264568 531.43898113 1486.16796875 529.88671875 C1533.51662419 494.74227101 1588.40911623 469.13090634 1644 450 C1645.04837036 449.63905243 1645.04837036 449.63905243 1646.11791992 449.27081299 C1698.91562543 431.15694279 1753.01340788 419.41113835 1808.13574219 411.09033203 C1894.67340004 398.02419522 1980.37203935 375.84795788 2106.43359375 293.765625 C2156.92210613 256.92221765 2156.92210613 256.92221765 2185 260 C2192.79959887 261.57766855 2198.16856092 265.77736529 2203 272 C2214.57707807 289.63695487 2212.82390373 313.96046562 2208.90258789 333.76391602 C2200.82163053 371.2136505 2185.01196674 405.15818372 2161 435 C2160.56768066 435.53818359 2160.13536133 436.07636719 2159.68994141 436.63085938 C2147.7066284 451.39719429 2134.17524966 465.50422868 2119 477 C2117.69429248 478.02083209 2116.38969757 479.04308814 2115.0859375 480.06640625 C2039.91840856 538.74402091 1945.43488628 563.88662842 1844.95825195 585.96899414 C1780.236826 598.18840688 1780.236826 598.18840688 1728.3046875 634.859375 C1724.86834717 640.49744237 1724.22610455 645.51118431 1725 652 C1727.15263539 659.60234522 1732.7417552 664.25274529 1739.1796875 668.40625 C1751.14787574 675.01494653 1765.80595448 676.69127565 1779.1875 678.625 C1779.9013385 678.73050171 1780.615177 678.83600342 1781.35064697 678.94470215 C1793.20133722 680.69491125 1805.04724156 682.16270526 1817 683 C1817.7734375 683.05639648 1818.546875 683.11279297 1819.34375 683.17089844 C1897.40002386 688.66736106 1979.6617816 671.64055481 2046 629 C2046.81871582 628.47438477 2047.63743164 627.94876953 2048.48095703 627.40722656 C2069.90234359 613.55817968 2090.19785649 598.25534925 2109 581 C2112.79539187 577.62809396 2116.63889387 574.31125911 2120.48046875 570.9921875 C2126.93865647 565.41010415 2133.37936411 559.81681441 2139.703125 554.08203125 C2141.20740399 552.71845862 2142.71762915 551.36141043 2144.234375 550.01171875 C2159.52945206 536.38472896 2175.16922578 522.44840172 2188.4296875 506.7890625 C2190.20465381 504.7668372 2192.08299023 502.88785373 2194 501 C2197.21434731 497.8288397 2200.21750963 494.54417247 2203.16015625 491.12109375 C2205.19508819 488.77508942 2207.28290967 486.4826355 2209.375 484.1875 C2213.23022386 479.91689849 2216.87582515 475.51226331 2220.4921875 471.0390625 C2223.38831988 467.52941921 2226.37683583 464.10984173 2229.375 460.6875 C2235.04283744 454.19704464 2240.41354806 447.52178812 2245.67919922 440.703125 C2246.96554178 439.04443263 2248.2632304 437.39548929 2249.56640625 435.75 C2260.97570744 421.34219653 2272.22552601 406.78951954 2282.77832031 391.73974609 C2284.08353766 389.88103729 2285.39656192 388.0280241 2286.7109375 386.17578125 C2289.26173653 382.57876793 2291.8004284 378.9733809 2294.33544922 375.36523438 C2295.45184701 373.778895 2296.57069351 372.19427629 2297.69189453 370.61132812 C2325.63651233 331.14725722 2351.58556075 290.12584643 2376.65625 248.79125977 C2381.11296745 241.44456135 2385.61316182 234.12545332 2390.125 226.8125 C2395.32715852 218.37517752 2400.47927795 209.91115827 2405.56518555 201.40332031 C2415.87362534 184.16517324 2426.39008567 167.05391705 2437 150 C2437.61020996 149.01821777 2438.22041992 148.03643555 2438.84912109 147.02490234 C2446.77967435 134.27163327 2454.74645935 121.54727404 2463 109 C2463.53979492 108.17935059 2464.07958984 107.35870117 2464.63574219 106.51318359 C2476.22194301 88.93783835 2488.21184123 71.72330552 2501 55 C2501.47324707 54.37963867 2501.94649414 53.75927734 2502.43408203 53.12011719 C2507.92491674 45.94694383 2513.58506823 39.07229286 2519.734375 32.44921875 C2521.70757517 30.31612133 2523.61294703 28.14641013 2525.5 25.9375 C2537.44373604 12.32719614 2553.20376519 -2.29213173 2572.17773438 -4.22143555 C2574.56028946 -4.33950595 2576.9270459 -4.37975806 2579.3125 -4.375 C2580.57163208 -4.37258301 2580.57163208 -4.37258301 2581.85620117 -4.37011719 C2588.25076768 -4.24367621 2593.4149342 -3.26737655 2599 0 C2600.051875 0.598125 2601.10375 1.19625 2602.1875 1.8125 C2611.67592215 9.1923839 2617.31856098 18.14779466 2620 30 C2621.1737177 42.72901429 2620.33746431 54.95205804 2616 67 C2615.68756348 67.90250488 2615.37512695 68.80500977 2615.05322266 69.73486328 C2603.13262293 103.87882774 2587.22703013 136.66696338 2571.7048645 169.28765869 C2569.1732176 174.61533942 2566.69840803 179.96818892 2564.23364258 185.32714844 C2557.2599562 200.48360182 2549.96444441 215.47439691 2542.63500977 230.46104431 C2542.23596436 231.27698563 2541.83691895 232.09292694 2541.42578125 232.93359375 C2540.83639771 234.13859276 2540.83639771 234.13859276 2540.23510742 235.36793518 C2537.3096423 241.35398211 2534.42168572 247.35699603 2531.5625 253.375 C2520.83184302 275.92624768 2509.88186395 298.38477962 2498.64599609 320.6887207 C2495.72382804 326.50512348 2492.90925096 332.36652072 2490.125 338.25 C2484.30952457 350.52796485 2478.19092047 362.65246196 2472.09777832 374.79418945 C2466.50005007 385.95238333 2460.95360483 397.12413078 2455.6171875 408.41015625 C2452.22044086 415.58469482 2448.67708938 422.67973111 2445.10498047 429.76831055 C2442.42810521 435.09613149 2439.82273625 440.45024623 2437.28149414 445.84399414 C2425.84421087 470.10654876 2413.42179771 493.94429116 2400.42578125 517.40576172 C2398.89029415 520.19961204 2397.3802199 523.00613851 2395.875 525.81640625 C2389.29265667 538.09801074 2382.46421589 550.19954026 2375.39453125 562.20703125 C2372.73868619 566.72129397 2370.13909231 571.26384156 2367.56518555 575.82519531 C2360.06546172 589.10322813 2352.07627005 602.0665006 2344 615 C2343.17822266 616.32161133 2343.17822266 616.32161133 2342.33984375 617.66992188 C2308.2232082 672.43609999 2270.72402208 725.46718849 2228.47509766 774.28662109 C2226.99829838 776.00197649 2225.53450406 777.72760487 2224.07421875 779.45703125 C2218.27655818 786.30916178 2212.32469996 792.9760205 2206.15869141 799.49975586 C2203.07249381 802.76568287 2200.05121698 806.07194902 2197.078125 809.44140625 C2190.99780419 816.21788812 2184.53438337 822.61514303 2178.08862305 829.04174805 C2175.93487478 831.19011866 2173.78654774 833.34380694 2171.63867188 835.49804688 C2170.24771646 836.88834168 2168.85645097 838.27832636 2167.46484375 839.66796875 C2166.83440659 840.30043015 2166.20396942 840.93289154 2165.5544281 841.58451843 C2161.75556747 845.36378101 2157.8426974 848.95841969 2153.78244019 852.45567322 C2151.19144564 854.70054084 2148.69606663 857.03834913 2146.1875 859.375 C2141.53614451 863.67195948 2136.74925159 867.74190142 2131.8125 871.7109375 C2129.37665188 873.69344722 2126.99326952 875.72408103 2124.62011719 877.78076172 C2116.24668042 885.00711639 2107.41085973 891.59313992 2098.50927734 898.15087891 C2096.90291011 899.33463309 2095.29884259 900.52151835 2093.69775391 901.71240234 C2081.51848123 910.76947473 2068.9218021 919.04201944 2056 927 C2054.68588135 927.81186768 2054.68588135 927.81186768 2053.34521484 928.64013672 C1990.33761286 967.33892345 1922.84727973 987.48971816 1850.94086075 1001.9259491 C1767.44465219 1018.69041365 1685.71330981 1042.88226512 1561 1099 C1559.31535645 1099.82298584 1559.31535645 1099.82298584 1557.59667969 1100.66259766 C1542.37773789 1108.10422801 1527.45874002 1115.92173325 1512.79003906 1124.39990234 C1509.97392581 1126.01495364 1507.14275695 1127.59966855 1504.3046875 1129.17578125 C1466.89181339 1149.97912385 1431.23192934 1174.10708815 1397.328125 1200.2109375 C1395.34932953 1201.7315555 1393.36485804 1203.24391478 1391.375 1204.75 C1373.43534244 1218.38413974 1356.21805377 1233.00108652 1339.7590332 1248.38452148 C1338.49134789 1249.54875101 1337.20938571 1250.69750265 1335.91870117 1251.83618164 C1328.60373744 1258.30062099 1321.70265869 1265.14494959 1314.81274414 1272.05688477 C1312.80923014 1274.06577864 1310.80039848 1276.06924389 1308.79101562 1278.07226562 C1302.65143999 1284.20817778 1296.55632878 1290.32184027 1291 1297 C1289.97034577 1298.2085836 1288.94040029 1299.41691914 1287.91015625 1300.625 C1286.96022992 1301.7494026 1286.01100012 1302.87439405 1285.0625 1304 C1284.56943359 1304.58394531 1284.07636719 1305.16789062 1283.56835938 1305.76953125 C1282.37827054 1307.17915104 1281.18903894 1308.58949449 1280 1310 C1275.69623453 1308.42668951 1273.31042031 1305.12204291 1270.5 1301.6875 C1260.71750616 1289.83456357 1250.02156943 1278.85453569 1239.14404297 1268.01367188 C1237.23417006 1266.10921495 1235.32977851 1264.19939181 1233.42578125 1262.2890625 C1227.96767931 1256.827991 1222.52880756 1251.40123229 1216.64208984 1246.39697266 C1214.08204919 1244.21907307 1211.64686513 1241.91582123 1209.1875 1239.625 C1204.54442811 1235.33569297 1199.76558383 1231.27321381 1194.83984375 1227.30859375 C1192.28199195 1225.22923967 1189.76893782 1223.10975168 1187.26538086 1220.96606445 C1180.99163317 1215.59803715 1174.55822861 1210.48218474 1167.97314453 1205.50048828 C1165.71180169 1203.78083806 1163.4632628 1202.04510582 1161.21484375 1200.30859375 C1112.4693572 1162.75172396 1059.68109291 1131.083945 1005 1103 C1003.9569873 1102.46149414 1002.91397461 1101.92298828 1001.83935547 1101.36816406 C932.13727594 1065.48547068 857.64032316 1039.16764544 782 1019 C780.85356018 1018.69252838 780.85356018 1018.69252838 779.68395996 1018.37884521 C754.18031608 1011.54273759 728.38782683 1006.22963539 702.52427673 1000.94863892 C617.69882709 983.62428455 539.74922503 956.33357677 469 905 C468.19481934 904.42008301 467.38963867 903.84016602 466.56005859 903.24267578 C451.36825151 892.28777212 436.88274222 880.57365534 422.65039062 868.40771484 C420.88061802 866.89817212 419.10460722 865.39617027 417.328125 863.89453125 C406.51718402 854.72935032 406.51718402 854.72935032 401.68699646 849.68605042 C399.95481947 847.95484481 398.15056116 846.36824163 396.28930664 844.77709961 C392.10502157 841.138022 388.16007251 837.30491504 384.24609375 833.37890625 C383.18927147 832.32351906 383.18927147 832.32351906 382.11109924 831.24681091 C380.63346633 829.76985352 379.15707543 828.29165258 377.68188477 826.81225586 C375.44333519 824.56834915 373.19949527 822.32983296 370.95507812 820.09179688 C369.51009596 818.64615382 368.06542408 817.20020055 366.62109375 815.75390625 C365.96048447 815.0953212 365.29987518 814.43673615 364.61924744 813.75819397 C360.78208269 809.90196143 357.12341136 805.94052937 353.57688904 801.81500244 C351.01020855 798.86074806 348.31006756 796.0337045 345.625 793.1875 C340.89803624 788.14089056 336.42490857 782.96665852 332.1015625 777.56640625 C330.01998573 775.02440637 327.8496162 772.60470665 325.625 770.1875 C321.64244719 765.8122041 317.9818193 761.25270734 314.35888672 756.58129883 C311.41231514 752.78496881 308.41218125 749.04210143 305.35864258 745.33129883 C297.24395148 735.46287877 289.60033179 725.26718439 282 715 C280.78650879 713.36715 279.57296789 711.73433693 278.359375 710.1015625 C277.1766263 708.50554692 275.99431733 706.90920536 274.8125 705.3125 C274.30340088 704.62631592 273.79430176 703.94013184 273.26977539 703.2331543 C262.85305524 689.10280262 252.96375076 674.61928574 243.25 660 C242.68451447 659.15005463 242.11902893 658.30010925 241.53640747 657.42440796 C220.58271974 625.91962739 200.72099099 593.8798109 182 561 C181.43297363 560.00629395 180.86594727 559.01258789 180.28173828 557.98876953 C172.90413907 545.04962845 165.66734663 532.03842067 158.58642578 518.93457031 C157.51131782 516.94583567 156.43410297 514.95823883 155.35498047 512.97167969 C139.69857905 484.13732066 124.70690932 454.94492885 110.48654175 425.37600708 C110.15840485 424.69376068 109.83026794 424.01151428 109.4921875 423.30859375 C108.98729294 422.25875809 108.98729294 422.25875809 108.47219849 421.18771362 C103.01931983 409.86745887 97.47201899 398.5929871 91.9375 387.3125 C91.37123901 386.15792297 90.80497803 385.00334595 90.22155762 383.81378174 C83.13861841 369.37552163 76.01055894 354.96193243 68.78710938 340.59350586 C64.79964893 332.6468853 60.93608751 324.64818992 57.12915039 316.61376953 C53.52114761 309.0242233 49.77463286 301.50778763 46 294 C41.41331248 284.87317706 36.90817842 275.71436941 32.53076172 266.48510742 C29.57530018 260.26550751 26.57676252 254.06831825 23.55078125 247.8828125 C23.15308029 247.06976151 22.75537933 246.25671051 22.34562683 245.41902161 C21.52278874 243.7369577 20.69994834 242.05489494 19.87710571 240.37283325 C13.30271761 226.92938012 6.81983359 213.45743894 0.56640625 199.86132812 C-2.99185043 192.13366381 -6.65760809 184.46473102 -10.375 176.8125 C-17.52864441 162.04351134 -24.31779925 147.11796464 -31.03527832 132.14691162 C-32.00356837 129.99205888 -32.97543664 127.83885274 -33.94824219 125.68603516 C-42.66843175 106.37292404 -50.94686998 86.99280773 -58 67 C-58.27972656 66.22720703 -58.55945313 65.45441406 -58.84765625 64.65820312 C-63.57632127 51.31199829 -64.71265305 33.78050534 -59.26171875 20.46875 C-53.61418854 9.41847417 -46.62142878 1.71086393 -35 -3 C-23.86126932 -6.21068546 -10.35775439 -4.8256011 0 0 Z " fill="#7CB333" transform="translate(228,851)"/>
<path d="M0 0 C1.25913208 0.00241699 1.25913208 0.00241699 2.54370117 0.00488281 C8.93826768 0.13132379 14.1024342 1.10762345 19.6875 4.375 C20.739375 4.973125 21.79125 5.57125 22.875 6.1875 C32.36342215 13.5673839 38.00606098 22.52279466 40.6875 34.375 C41.8612177 47.10401429 41.02496431 59.32705804 36.6875 71.375 C36.37506348 72.27750488 36.06262695 73.18000977 35.74072266 74.10986328 C23.82012293 108.25382774 7.91453013 141.04196338 -7.6076355 173.66265869 C-10.1392824 178.99033942 -12.61409197 184.34318892 -15.07885742 189.70214844 C-22.0525438 204.85860182 -29.34805559 219.84939691 -36.67749023 234.83604431 C-37.07653564 235.65198563 -37.47558105 236.46792694 -37.88671875 237.30859375 C-38.47610229 238.51359276 -38.47610229 238.51359276 -39.07739258 239.74293518 C-42.0028577 245.72898211 -44.89081428 251.73199603 -47.75 257.75 C-58.48065698 280.30124768 -69.43063605 302.75977962 -80.66650391 325.0637207 C-83.58867196 330.88012348 -86.40324904 336.74152072 -89.1875 342.625 C-95.00297543 354.90296485 -101.12157953 367.02746196 -107.21472168 379.16918945 C-112.81244993 390.32738333 -118.35889517 401.49913078 -123.6953125 412.78515625 C-127.09205914 419.95969482 -130.63541062 427.05473111 -134.20751953 434.14331055 C-136.88439479 439.47113149 -139.48976375 444.82524623 -142.03100586 450.21899414 C-153.46828913 474.48154876 -165.89070229 498.31929116 -178.88671875 521.78076172 C-180.42220585 524.57461204 -181.9322801 527.38113851 -183.4375 530.19140625 C-190.01984333 542.47301074 -196.84828411 554.57454026 -203.91796875 566.58203125 C-206.57381381 571.09629397 -209.17340769 575.63884156 -211.74731445 580.20019531 C-219.24703828 593.47822813 -227.23622995 606.4415006 -235.3125 619.375 C-236.13427734 620.69661133 -236.13427734 620.69661133 -236.97265625 622.04492188 C-271.0892918 676.81109999 -308.58847792 729.84218849 -350.83740234 778.66162109 C-352.31420162 780.37697649 -353.77799594 782.10260487 -355.23828125 783.83203125 C-361.03594182 790.68416178 -366.98780004 797.3510205 -373.15380859 803.87475586 C-376.24000619 807.14068287 -379.26128302 810.44694902 -382.234375 813.81640625 C-388.31469581 820.59288812 -394.77811663 826.99014303 -401.22387695 833.41674805 C-403.37762522 835.56511866 -405.52595226 837.71880694 -407.67382812 839.87304688 C-409.06478354 841.26334168 -410.45604903 842.65332636 -411.84765625 844.04296875 C-412.47809341 844.67543015 -413.10853058 845.30789154 -413.7580719 845.95951843 C-417.55693253 849.73878101 -421.4698026 853.33341969 -425.53005981 856.83067322 C-428.12105436 859.07554084 -430.61643337 861.41334913 -433.125 863.75 C-437.77635549 868.04695948 -442.56324841 872.11690142 -447.5 876.0859375 C-449.93584812 878.06844722 -452.31923048 880.09908103 -454.69238281 882.15576172 C-463.06581958 889.38211639 -471.90164027 895.96813992 -480.80322266 902.52587891 C-482.40958989 903.70963309 -484.01365741 904.89651835 -485.61474609 906.08740234 C-497.79401877 915.14447473 -510.3906979 923.41701944 -523.3125 931.375 C-524.62661865 932.18686768 -524.62661865 932.18686768 -525.96728516 933.01513672 C-588.97488714 971.71392345 -656.46522027 991.86471816 -728.37163925 1006.3009491 C-811.86784781 1023.06541365 -893.59919019 1047.25726512 -1018.3125 1103.375 C-1019.99714355 1104.19798584 -1019.99714355 1104.19798584 -1021.71582031 1105.03759766 C-1036.93476211 1112.47922801 -1051.85375998 1120.29673325 -1066.52246094 1128.77490234 C-1069.33857419 1130.38995364 -1072.16974305 1131.97466855 -1075.0078125 1133.55078125 C-1112.42068661 1154.35412385 -1148.08057066 1178.48208815 -1181.984375 1204.5859375 C-1183.96317047 1206.1065555 -1185.94764196 1207.61891478 -1187.9375 1209.125 C-1205.87715756 1222.75913974 -1223.09444623 1237.37608652 -1239.5534668 1252.75952148 C-1240.82115211 1253.92375101 -1242.10311429 1255.07250265 -1243.39379883 1256.21118164 C-1250.70876256 1262.67562099 -1257.60984131 1269.51994959 -1264.49975586 1276.43188477 C-1266.50326986 1278.44077864 -1268.51210152 1280.44424389 -1270.52148438 1282.44726562 C-1276.65997394 1288.58204481 -1282.76711355 1294.689189 -1288.3125 1301.375 C-1288.819021 1301.97578369 -1289.32554199 1302.57656738 -1289.84741211 1303.19555664 C-1291.79231263 1305.50475499 -1293.72800616 1307.82140768 -1295.65625 1310.14453125 C-1296.85372179 1311.57280067 -1298.08033183 1312.97655308 -1299.3125 1314.375 C-1299.6425 1314.375 -1299.9725 1314.375 -1300.3125 1314.375 C-1300.60353844 1260.10720866 -1300.87418552 1205.83934342 -1301.03233337 1151.57098389 C-1301.03468034 1150.76768043 -1301.03702731 1149.96437698 -1301.0394454 1149.136731 C-1301.09032592 1131.67839953 -1301.13741885 1114.22005976 -1301.1806106 1096.76170762 C-1301.20181515 1088.20002329 -1301.22385659 1079.63834122 -1301.24633789 1071.07666016 C-1301.24856079 1070.22467409 -1301.2507837 1069.37268802 -1301.25307396 1068.49488419 C-1301.32550554 1040.88391162 -1301.45318821 1013.27353083 -1301.60955275 985.66291671 C-1301.76995816 957.28720609 -1301.87456405 928.9118229 -1301.90905483 900.53566656 C-1301.9139534 896.52692781 -1301.91948922 892.51819018 -1301.92541313 888.50945282 C-1301.92713242 887.32599805 -1301.92713242 887.32599805 -1301.92888644 886.1186351 C-1301.94896903 873.42272845 -1302.0277951 860.72783482 -1302.12864458 848.03234116 C-1302.22880089 835.26604128 -1302.26693879 822.50074465 -1302.24202342 809.73406574 C-1302.23023752 802.81723404 -1302.24569232 795.90311294 -1302.33899307 788.98682594 C-1302.42176578 782.65247243 -1302.42589531 776.32308331 -1302.36778121 769.98850057 C-1302.36060073 767.69883473 -1302.38215511 765.40885849 -1302.4355141 763.11980322 C-1302.80155123 746.44599264 -1302.80155123 746.44599264 -1298.63835852 741.30944341 C-1294.61010706 737.64238503 -1290.14505221 734.99628253 -1285.332408 732.49018511 C-1282.46599693 730.90764821 -1280.12135681 728.9895786 -1277.625 726.875 C-1276.32852539 725.78433228 -1276.32852539 725.78433228 -1275.00585938 724.67163086 C-1274.11705078 723.91374268 -1273.22824219 723.15585449 -1272.3125 722.375 C-1271.32572266 721.55588135 -1270.33894531 720.7367627 -1269.32226562 719.89282227 C-1260.31354639 712.36106909 -1251.9274728 704.29982428 -1243.65161133 695.97485352 C-1241.49197446 693.80443439 -1239.32176097 691.64500183 -1237.15039062 689.48632812 C-1229.74055806 682.08347903 -1222.7834752 674.61953504 -1216.3125 666.375 C-1215.39093457 665.29527013 -1214.461368 664.22224992 -1213.51953125 663.16015625 C-1205.91833262 654.51735781 -1199.44064151 645.19751891 -1192.92578125 635.72119141 C-1183.00947239 621.29992504 -1172.40015494 607.57716067 -1160.48828125 594.734375 C-1158.64525143 592.7358292 -1156.87789274 590.70184507 -1155.125 588.625 C-1147.60042988 579.97174437 -1139.27048997 571.6133062 -1130.5 564.22265625 C-1128.66293366 562.67099129 -1126.85980579 561.09318945 -1125.0625 559.49609375 C-1116.80511576 552.18873252 -1108.29934016 545.38484713 -1099.38818359 538.89306641 C-1097.2963097 537.36315911 -1095.21985432 535.81398113 -1093.14453125 534.26171875 C-1045.79587581 499.11727101 -990.90338377 473.50590634 -935.3125 454.375 C-934.26412964 454.01405243 -934.26412964 454.01405243 -933.19458008 453.64581299 C-880.39687457 435.53194279 -826.29909212 423.78613835 -771.17675781 415.46533203 C-684.63909996 402.39919522 -598.94046065 380.22295788 -472.87890625 298.140625 C-422.39039387 261.29721765 -422.39039387 261.29721765 -394.3125 264.375 C-386.51290113 265.95266855 -381.14393908 270.15236529 -376.3125 276.375 C-364.73542193 294.01195487 -366.48859627 318.33546562 -370.40991211 338.13891602 C-378.49086947 375.5886505 -394.30053326 409.53318372 -418.3125 439.375 C-418.74481934 439.91318359 -419.17713867 440.45136719 -419.62255859 441.00585938 C-431.6058716 455.77219429 -445.13725034 469.87922868 -460.3125 481.375 C-461.61820752 482.39583209 -462.92280243 483.41808814 -464.2265625 484.44140625 C-539.39409144 543.11902091 -633.87761372 568.26162842 -734.35424805 590.34399414 C-799.075674 602.56340688 -799.075674 602.56340688 -851.0078125 639.234375 C-854.44415283 644.87244237 -855.08639545 649.88618431 -854.3125 656.375 C-852.15986461 663.97734522 -846.5707448 668.62774529 -840.1328125 672.78125 C-828.16462426 679.38994653 -813.50654552 681.06627565 -800.125 683 C-799.4111615 683.10550171 -798.697323 683.21100342 -797.96185303 683.31970215 C-786.11116278 685.06991125 -774.26525844 686.53770526 -762.3125 687.375 C-761.5390625 687.43139648 -760.765625 687.48779297 -759.96875 687.54589844 C-681.91247614 693.04236106 -599.6507184 676.01555481 -533.3125 633.375 C-532.08442627 632.58657715 -532.08442627 632.58657715 -530.83154297 631.78222656 C-509.41015641 617.93317968 -489.11464351 602.63034925 -470.3125 585.375 C-466.51710813 582.00309396 -462.67360613 578.68625911 -458.83203125 575.3671875 C-452.37384353 569.78510415 -445.93313589 564.19181441 -439.609375 558.45703125 C-438.10509601 557.09345862 -436.59487085 555.73641043 -435.078125 554.38671875 C-419.78304794 540.75972896 -404.14327422 526.82340172 -390.8828125 511.1640625 C-389.10784619 509.1418372 -387.22950977 507.26285373 -385.3125 505.375 C-382.09815269 502.2038397 -379.09499037 498.91917247 -376.15234375 495.49609375 C-374.11741181 493.15008942 -372.02959033 490.8576355 -369.9375 488.5625 C-366.08227614 484.29189849 -362.43667485 479.88726331 -358.8203125 475.4140625 C-355.92418012 471.90441921 -352.93566417 468.48484173 -349.9375 465.0625 C-344.26966256 458.57204464 -338.89895194 451.89678812 -333.63330078 445.078125 C-332.34695822 443.41943263 -331.0492696 441.77048929 -329.74609375 440.125 C-318.33679256 425.71719653 -307.08697399 411.16451954 -296.53417969 396.11474609 C-295.22896234 394.25603729 -293.91593808 392.4030241 -292.6015625 390.55078125 C-290.05076347 386.95376793 -287.5120716 383.3483809 -284.97705078 379.74023438 C-283.86065299 378.153895 -282.74180649 376.56927629 -281.62060547 374.98632812 C-253.67598767 335.52225722 -227.72693925 294.50084643 -202.65625 253.16625977 C-198.19953255 245.81956135 -193.69933818 238.50045332 -189.1875 231.1875 C-183.98534148 222.75017752 -178.83322205 214.28615827 -173.74731445 205.77832031 C-163.43887466 188.54017324 -152.92241433 171.42891705 -142.3125 154.375 C-141.70229004 153.39321777 -141.09208008 152.41143555 -140.46337891 151.39990234 C-132.53282565 138.64663327 -124.56604065 125.92227404 -116.3125 113.375 C-115.77270508 112.55435059 -115.23291016 111.73370117 -114.67675781 110.88818359 C-103.09055699 93.31283835 -91.10065877 76.09830552 -78.3125 59.375 C-77.83925293 58.75463867 -77.36600586 58.13427734 -76.87841797 57.49511719 C-71.38758326 50.32194383 -65.72743177 43.44729286 -59.578125 36.82421875 C-57.60492483 34.69112133 -55.69955297 32.52141013 -53.8125 30.3125 C-39.70382391 14.23517143 -22.39135666 -0.04466213 0 0 Z " fill="#6A9625" transform="translate(2807.3125,846.625)"/>
</svg>
